<svg xmlns="http://www.w3.org/2000/svg" viewBox="0 0 1200 850" width="100%" height="100%">
    
    <defs>
      <linearGradient id="bgGrad" x1="0%" y1="0%" x2="100%" y2="100%">
        <stop offset="0%" stop-color="#0b0f17"/>
        <stop offset="100%" stop-color="#141c2b"/>
      </linearGradient>
      <linearGradient id="cardGrad" x1="0%" y1="0%" x2="0%" y2="100%">
        <stop offset="0%" stop-color="#1c2536"/>
        <stop offset="100%" stop-color="#151d2c"/>
      </linearGradient>
      <linearGradient id="accentGrad" x1="0%" y1="0%" x2="100%" y2="0%">
        <stop offset="0%" stop-color="#3b82f6"/>
        <stop offset="100%" stop-color="#8b5cf6"/>
      </linearGradient>
      <linearGradient id="greenGrad" x1="0%" y1="0%" x2="100%" y2="0%">
        <stop offset="0%" stop-color="#10b981"/>
        <stop offset="100%" stop-color="#059669"/>
      </linearGradient>
      <linearGradient id="goldGrad" x1="0%" y1="0%" x2="100%" y2="0%">
        <stop offset="0%" stop-color="#f59e0b"/>
        <stop offset="100%" stop-color="#d97706"/>
      </linearGradient>
      <linearGradient id="purpleGrad" x1="0%" y1="0%" x2="100%" y2="0%">
        <stop offset="0%" stop-color="#8b5cf6"/>
        <stop offset="100%" stop-color="#ec4899"/>
      </linearGradient>
      
      <filter id="shadow" x="-5%" y="-5%" width="110%" height="115%" filterUnits="userSpaceOnUse">
        <feDropShadow dx="0" dy="6" stdDeviation="8" flood-color="#000000" flood-opacity="0.5"/>
      </filter>
      <filter id="glow" x="-20%" y="-20%" width="140%" height="140%">
        <feGaussianBlur stdDeviation="4" result="blur"/>
        <feComposite in="SourceGraphic" in2="blur" operator="over"/>
      </filter>

      <marker id="arrow" viewBox="0 0 10 10" refX="6" refY="5" markerWidth="6" markerHeight="6" orient="auto-start-reverse">
        <path d="M 0 1.5 L 8 5 L 0 8.5 z" fill="#60a5fa"/>
      </marker>
      <marker id="arrow-green" viewBox="0 0 10 10" refX="6" refY="5" markerWidth="6" markerHeight="6" orient="auto-start-reverse">
        <path d="M 0 1.5 L 8 5 L 0 8.5 z" fill="#34d399"/>
      </marker>
      <marker id="arrow-gold" viewBox="0 0 10 10" refX="6" refY="5" markerWidth="6" markerHeight="6" orient="auto-start-reverse">
        <path d="M 0 1.5 L 8 5 L 0 8.5 z" fill="#fbbf24"/>
      </marker>
    </defs>
    <style>
      @import url('https://fonts.googleapis.com/css2?family=Cairo:wght@400;600;700;800&amp;display=swap');
      text { font-family: 'Cairo', 'Segoe UI', Tahoma, sans-serif; }
      .title { font-size: 24px; font-weight: 800; fill: #ffffff; text-anchor: middle; }
      .subtitle { font-size: 14px; fill: #94a3b8; text-anchor: middle; }
      .sec-title { font-size: 15px; font-weight: 700; fill: #93c5fd; }
      .box-title { font-size: 14px; font-weight: 700; fill: #ffffff; }
      .box-sub { font-size: 11px; fill: #94a3b8; }
      .badge-text { font-size: 11px; font-weight: 700; fill: #ffffff; }
      .link-text { font-size: 11px; fill: #38bdf8; font-weight: 600; }
    </style>

    <rect width="1200" height="850" fill="url(#bgGrad)"/>
    <rect x="20" y="20" width="1160" height="810" rx="16" fill="none" stroke="#334155" stroke-width="1.5"/>

    <!-- Header -->
    <text x="600" y="55" class="title">المخطط 2: تسلسل رحلة العميل خطوة بخطوة (Customer Journey Sequence)</text>
    <text x="600" y="80" class="subtitle">المسار الزمني الدقيق من أول استفسار إلى تقدير الساعات بالـ AI وحتى اعتماد السعر من المالك</text>

    <!-- Lifeline Headers -->
    <!-- 1. Customer -->
    <g transform="translate(70, 110)">
      <rect width="180" height="45" rx="8" fill="#1e293b" stroke="#3b82f6" stroke-width="1.5"/>
      <text x="90" y="28" font-size="14" font-weight="700" fill="#93c5fd" text-anchor="middle">👤 العميل (واتساب / انستغرام)</text>
      <line x1="90" y1="45" x2="90" y2="700" stroke="#334155" stroke-dasharray="4,4" stroke-width="1.5"/>
    </g>

    <!-- 2. AmanCore Engine -->
    <g transform="translate(320, 110)">
      <rect width="180" height="45" rx="8" fill="#1e293b" stroke="#3b82f6" stroke-width="1.5"/>
      <text x="90" y="28" font-size="14" font-weight="700" fill="#93c5fd" text-anchor="middle">⚙️ نواة النظام (AmanCore)</text>
      <line x1="90" y1="45" x2="90" y2="700" stroke="#334155" stroke-dasharray="4,4" stroke-width="1.5"/>
    </g>

    <!-- 3. AI Estimator & Drafter -->
    <g transform="translate(570, 110)">
      <rect width="180" height="45" rx="8" fill="#1e1b4b" stroke="#8b5cf6" stroke-width="1.5"/>
      <text x="90" y="28" font-size="14" font-weight="700" fill="#c4b5fd" text-anchor="middle">🧠 عقل الـ AI (Estimator)</text>
      <line x1="90" y1="45" x2="90" y2="700" stroke="#4338ca" stroke-dasharray="4,4" stroke-width="1.5"/>
    </g>

    <!-- 4. QualityGuard -->
    <g transform="translate(800, 110)">
      <rect width="160" height="45" rx="8" fill="#451a03" stroke="#f59e0b" stroke-width="1.5"/>
      <text x="80" y="28" font-size="14" font-weight="700" fill="#fde68a" text-anchor="middle">🛡️ حارس الأمان (Guard)</text>
      <line x1="80" y1="45" x2="80" y2="700" stroke="#78350f" stroke-dasharray="4,4" stroke-width="1.5"/>
    </g>

    <!-- 5. Owner Telegram -->
    <g transform="translate(1000, 110)">
      <rect width="150" height="45" rx="8" fill="#064e3b" stroke="#10b981" stroke-width="1.5"/>
      <text x="75" y="28" font-size="14" font-weight="700" fill="#6ee7b7" text-anchor="middle">📱 المالك (تيليجرام)</text>
      <line x1="75" y1="45" x2="75" y2="700" stroke="#065f46" stroke-dasharray="4,4" stroke-width="1.5"/>
    </g>

    <!-- Step 1: Customer greeting -->
    <g transform="translate(0, 180)">
      <line x1="160" y1="20" x2="410" y2="20" stroke="#60a5fa" stroke-width="2" marker-end="url(#arrow)"/>
      <rect x="180" y="0" width="210" height="20" rx="4" fill="#1e293b"/>
      <text x="285" y="14" font-size="11" fill="#e2e8f0" text-anchor="middle">1. "السلام عليكم، أريد متجر لبيع الملابس"</text>
    </g>

    <!-- Step 2: Extract & Consultative question -->
    <g transform="translate(0, 230)">
      <line x1="410" y1="20" x2="660" y2="20" stroke="#8b5cf6" stroke-width="2" marker-end="url(#arrow)"/>
      <rect x="440" y="0" width="190" height="20" rx="4" fill="#1e293b"/>
      <text x="535" y="14" font-size="11" fill="#c4b5fd" text-anchor="middle">2. استخراج الحاجة وصياغة سؤال استكشافي</text>
    </g>

    <!-- Step 3: Reply to Customer -->
    <g transform="translate(0, 280)">
      <line x1="410" y1="20" x2="160" y2="20" stroke="#38bdf8" stroke-width="2" marker-end="url(#arrow)"/>
      <rect x="180" y="0" width="210" height="20" rx="4" fill="#1e293b"/>
      <text x="285" y="14" font-size="11" fill="#7dd3fc" text-anchor="middle">3. "أهلاً بك! كم عدد منتجاتكم وما طرق الدفع؟"</text>
    </g>

    <!-- Step 4: Customer answers specifics -->
    <g transform="translate(0, 330)">
      <line x1="160" y1="20" x2="410" y2="20" stroke="#60a5fa" stroke-width="2" marker-end="url(#arrow)"/>
      <rect x="180" y="0" width="210" height="20" rx="4" fill="#1e293b"/>
      <text x="285" y="14" font-size="11" fill="#e2e8f0" text-anchor="middle">4. "15 منتج ونريد بوابة أبل باي ولغتين"</text>
    </g>

    <!-- Gate-B Box -->
    <g transform="translate(320, 380)">
      <rect width="360" height="40" rx="6" fill="#065f46" stroke="#10b981" stroke-width="1.2"/>
      <text x="180" y="25" font-size="12" font-weight="700" fill="#a7f3d0" text-anchor="middle">✅ اكتمال متطلبات النطاق الفني (Gate-B Satisfied)</text>
    </g>

    <!-- Step 5: AI Technical WBS Estimation -->
    <g transform="translate(0, 440)">
      <line x1="410" y1="20" x2="660" y2="20" stroke="#8b5cf6" stroke-width="2" marker-end="url(#arrow)"/>
      <rect x="430" y="0" width="210" height="20" rx="4" fill="#2e1065"/>
      <text x="535" y="14" font-size="11" fill="#ddd6fe" text-anchor="middle">5. برومبت مهندس الحلول لحساب الساعات (WBS)</text>

      <line x1="660" y1="45" x2="410" y2="45" stroke="#a855f7" stroke-width="1.5" stroke-dasharray="4,4" marker-end="url(#arrow)"/>
      <rect x="430" y="32" width="210" height="20" rx="4" fill="#2e1065"/>
      <text x="535" y="46" font-size="10" fill="#e9d5ff" text-anchor="middle">48 ساعة عمل (18 واجهات، 16 سيرفر، 8 ربط، 6 نشر)</text>
    </g>

    <!-- Step 6: Pricing Engine Math -->
    <g transform="translate(320, 510)">
      <rect width="200" height="35" rx="6" fill="#1e293b" stroke="#3b82f6"/>
      <text x="100" y="22" font-size="11" fill="#93c5fd" text-anchor="middle">حساب السعر: 1,600$ (الحد: 1,100$)</text>
    </g>

    <!-- Parallel: Notice to Customer AND Alert to Owner -->
    <g transform="translate(0, 565)">
      <!-- To Customer: Tentative reassuring band -->
      <line x1="410" y1="20" x2="160" y2="20" stroke="#38bdf8" stroke-width="2" marker-end="url(#arrow)"/>
      <rect x="170" y="0" width="230" height="20" rx="4" fill="#0c4a6e"/>
      <text x="285" y="14" font-size="10" fill="#bae6fd" text-anchor="middle">تقدير مبدئي: 1200-1800$ + جاري المراجعة الفنية</text>

      <!-- To Owner Telegram -->
      <line x1="410" y1="20" x2="1075" y2="20" stroke="#f59e0b" stroke-width="2.5" marker-end="url(#arrow-gold)"/>
      <rect x="680" y="0" width="310" height="20" rx="4" fill="#451a03"/>
      <text x="835" y="14" font-size="11" fill="#fde68a" font-weight="700" text-anchor="middle">🔔 إشعار تيليجرام: اعتماد سعر 1,600$ (48 ساعة تفصيلية)</text>
    </g>

    <!-- Step 7: Owner Approve -->
    <g transform="translate(0, 625)">
      <line x1="1075" y1="20" x2="410" y2="20" stroke="#10b981" stroke-width="2.5" marker-end="url(#arrow-green)"/>
      <rect x="650" y="0" width="280" height="20" rx="4" fill="#064e3b"/>
      <text x="790" y="14" font-size="11" fill="#6ee7b7" font-weight="700" text-anchor="middle">اعتماد المالك: /qapprove q-8a3f (أو بسعر مخصص 1500)</text>
    </g>

    <!-- Step 8: QualityGuard check -->
    <g transform="translate(0, 680)">
      <line x1="410" y1="20" x2="880" y2="20" stroke="#f59e0b" stroke-width="1.8" marker-end="url(#arrow)"/>
      <rect x="520" y="0" width="240" height="20" rx="4" fill="#1e293b"/>
      <text x="640" y="14" font-size="11" fill="#fde68a" text-anchor="middle">فحص السعر ومطابقته لسناب شوت الاعتماد T3</text>
    </g>

    <!-- Step 9: Final Official Offer to Customer -->
    <g transform="translate(0, 735)">
      <line x1="410" y1="20" x2="160" y2="20" stroke="#10b981" stroke-width="2.5" marker-end="url(#arrow-green)"/>
      <rect x="170" y="0" width="230" height="32" rx="6" fill="#065f46"/>
      <text x="285" y="15" font-size="11" font-weight="700" fill="#a7f3d0" text-anchor="middle">السعر الرسمي المعتمد: 1,500$</text>
      <text x="285" y="27" font-size="9" fill="#d1fae5" text-anchor="middle">شامل السيرفر، الدومين، SSL، الضمان، والدعم</text>
    </g>
</svg>